<mxfile host="app.diagrams.net" modified="2023-09-06T12:01:00.274Z" agent="Mozilla/5.0 (Macintosh; Intel Mac OS X 10_15_7) AppleWebKit/605.1.15 (KHTML, like Gecko) Version/16.6 Safari/605.1.15" version="21.7.2" etag="8HDrCvMj0aLf4pdCm6i5" type="github">
  <diagram name="Страница — 1" id="DdJtUq3L_0oEUzeU_RWa">
    <mxGraphModel>
      <root>
        <mxCell id="0" />
        <mxCell id="1" parent="0" />
      </root>
    </mxGraphModel>
  </diagram>
</mxfile>
